<svg width="48" height="48" viewBox="0 0 48 48" fill="none" xmlns="http://www.w3.org/2000/svg">
<path d="M46.6667 24.64C46.6667 22.88 46.52 21.12 46.2267 19.4H24V28.96H36.96C36.4267 31.84 35.04 34.24 32.9067 35.7867V41.6H41.0667C44.64 38.24 46.6667 31.9467 46.6667 24.64Z" fill="#4285F4"/>
<path d="M24 48C30.4533 48 35.9467 45.8133 39.9467 42.4L32.9067 36.5333C30.6667 38.08 27.6267 39.04 24 39.04C17.44 39.04 11.9467 34.8533 10.0533 29.28H1.70667V35.1467C5.65333 42.8267 14.1333 48 24 48Z" fill="#34A853"/>
<path d="M10.0533 29.28C9.57333 27.84 9.33333 26.2933 9.33333 24.72C9.33333 23.1467 9.57333 21.6 10.0533 20.16V14.2933H1.70667C-0.56 18.72 -1.42429e-05 23.9467 0 29.28C1.70667 35.1467 5.70667 42.8267 10.0533 29.28Z" fill="#FBBC05"/>
<path d="M24 9.38667C27.9467 9.38667 30.8267 10.72 33.12 12.8L40.16 5.54667C35.9467 1.81333 30.4533 0 24 0C14.1333 0 5.65333 5.17333 1.70667 12.8533L10.0533 18.72C11.9467 13.1467 17.44 9.38667 24 9.38667Z" fill="#EA4335"/>
</svg> 